<?xml version="1.0" encoding="iso-8859-1"?>
<!-- Generator: Adobe Illustrator 19.0.0, SVG Export Plug-In . SVG Version: 6.00 Build 0)  -->
<svg version="1.1" id="Capa_1" xmlns="http://www.w3.org/2000/svg" xmlns:xlink="http://www.w3.org/1999/xlink" x="0px" y="0px"
	 viewBox="0 0 498.036 498.036" style="enable-background:new 0 0 498.036 498.036;" xml:space="preserve">
<circle style="fill:#FDBF5E;" cx="249.018" cy="249.018" r="249.018"/>
<path style="fill:#E1E6E9;" d="M36.461,224.97h101.624V86.885c0-27.927-22.497-50.424-50.424-50.424l0,0
	c-27.927,0-50.424,22.497-50.424,50.424V224.97H36.461z"/>
<path style="fill:#193651;" d="M86.885,27.927c-32.582,0-58.182,26.376-58.182,58.182v138.085c0,4.655,3.103,7.758,7.758,7.758
	h101.624c4.655,0,7.758-3.103,7.758-7.758V86.885C145.842,54.303,119.467,27.927,86.885,27.927z M130.327,217.212H44.218V86.885
	c0-24.048,19.394-42.667,42.667-42.667c24.048,0,42.667,19.394,42.667,42.667v130.327H130.327z"/>
<path style="fill:#FFFFFF;" d="M110.158,197.042V86.885c0-13.188-10.085-23.273-23.273-23.273S63.612,73.697,63.612,86.885v110.158
	H110.158z"/>
<path style="fill:#4FBF9F;" d="M138.085,86.885c0-27.927-22.497-50.424-50.424-50.424l0,0h241.261
	c27.927,0,50.424,22.497,50.424,50.424v375.467H138.085V86.885z"/>
<path style="fill:#193651;" d="M379.345,470.109H138.085c-4.655,0-7.758-3.103-7.758-7.758V86.885
	c0-24.048-19.394-42.667-42.667-42.667c-4.655,0-7.758-3.103-7.758-7.758s3.103-7.758,7.758-7.758h241.261
	c32.582,0,58.182,26.376,58.182,58.182v375.467C387.103,466.23,384,470.109,379.345,470.109z M145.842,454.594h225.745V86.885
	c0-24.048-19.394-42.667-42.667-42.667H127.224c11.636,10.861,18.618,25.6,18.618,42.667L145.842,454.594L145.842,454.594z"/>
<path style="fill:#FFFFFF;" d="M352.194,434.424V86.885c0-13.188-10.085-23.273-23.273-23.273H161.358
	c2.327,6.982,3.879,15.515,3.879,23.273v347.539H352.194z"/>
<path style="fill:#E1E6E9;" d="M304.097,277.721c0-21.721-17.842-39.564-39.564-39.564S224.97,256,224.97,277.721
	c0,17.067,10.861,31.03,25.6,37.236l-7.758,46.545h44.218l-7.758-46.545C293.236,308.752,304.097,294.012,304.097,277.721z"/>
<g>
	<path style="fill:#193651;" d="M286.255,368.485h-44.218c-2.327,0-4.655-0.776-6.206-3.103c-1.552-1.552-2.327-3.879-1.552-6.206
		l6.206-40.339c-14.739-8.533-24.824-24.048-24.824-41.891c0-26.376,21.721-47.321,47.321-47.321s47.321,21.721,47.321,47.321
		c0,17.842-9.309,33.358-24.824,41.891l6.206,40.339c0,2.327,0,4.655-1.552,6.206C290.133,367.709,288.582,368.485,286.255,368.485z
		 M251.345,352.97h25.6l-6.206-37.236c-0.776-3.879,1.552-6.982,4.655-8.533c12.412-4.655,20.17-16.291,20.17-30.255
		c0-17.842-14.739-31.806-31.806-31.806c-17.842,0-31.806,14.739-31.806,31.806c0,13.188,7.758,24.824,20.17,30.255
		c3.103,1.552,5.43,4.655,4.655,8.533L251.345,352.97z"/>
	<path style="fill:#193651;" d="M371.588,287.03H224.194c-4.655,0-7.758-3.103-7.758-7.758s3.103-7.758,7.758-7.758h147.394
		c4.655,0,7.758,3.103,7.758,7.758S375.467,287.03,371.588,287.03z"/>
</g>
<path style="fill:#FFFFFF;" d="M432.097,249.794c-5.43,0-10.085,1.552-14.739,3.879c-0.776-15.515-13.188-28.703-29.479-28.703
	c-16.291,0-29.479,13.188-29.479,29.479c0,10.085,5.43,19.394,13.188,24.824c-7.758,5.43-13.188,13.964-13.188,24.824
	c0,16.291,13.188,29.479,29.479,29.479c16.291,0,28.703-12.412,29.479-28.703c4.655,2.327,9.309,3.879,14.739,3.879
	c16.291,0,29.479-13.188,29.479-29.479C461.576,262.982,448.388,249.794,432.097,249.794z"/>
<g>
	<path style="fill:#193651;" d="M387.879,341.333c-20.945,0-37.236-17.067-37.236-37.236c0-9.309,3.103-17.842,9.309-24.824
		c-6.206-6.982-9.309-15.515-9.309-24.824c0-20.945,17.067-37.236,37.236-37.236c16.291,0,30.255,10.861,35.685,25.6
		c3.103-0.776,6.206-0.776,8.533-0.776c20.945,0,37.236,17.067,37.236,37.236c0,20.945-17.067,37.236-37.236,37.236
		c-3.103,0-6.206,0-8.533-0.776C418.133,330.473,404.17,341.333,387.879,341.333z M387.879,232.727
		c-11.636,0-21.721,10.085-21.721,21.721c0,6.982,3.879,13.964,9.309,17.842c2.327,1.552,3.103,3.879,3.103,6.206
		c0,2.327-1.552,4.655-3.103,6.206c-6.206,3.879-9.309,10.861-9.309,17.842c0,11.636,10.085,21.721,21.721,21.721
		c11.636,0,20.945-9.309,21.721-20.945c0-3.103,1.552-5.43,3.879-6.206c2.327-1.552,5.43-1.552,7.758,0
		c3.103,2.327,6.982,3.103,10.861,3.103c11.636,0,21.721-10.085,21.721-21.721c0-11.636-10.085-21.721-21.721-21.721
		c-3.879,0-7.758,0.776-10.861,3.103c-2.327,1.552-5.43,1.552-7.758,0c-2.327-1.552-3.879-3.879-3.879-6.206
		C408.824,242.036,399.515,232.727,387.879,232.727z"/>
	<path style="fill:#193651;" d="M321.164,121.794h-128c-4.655,0-7.758-3.103-7.758-7.758s3.103-7.758,7.758-7.758h128
		c4.655,0,7.758,3.103,7.758,7.758S325.042,121.794,321.164,121.794z"/>
	<path style="fill:#193651;" d="M321.164,163.685h-128c-4.655,0-7.758-3.103-7.758-7.758c0-4.655,3.103-7.758,7.758-7.758h128
		c4.655,0,7.758,3.103,7.758,7.758C328.921,160.582,325.042,163.685,321.164,163.685z"/>
	<path style="fill:#193651;" d="M321.164,205.576h-128c-4.655,0-7.758-3.103-7.758-7.758c0-4.655,3.103-7.758,7.758-7.758h128
		c4.655,0,7.758,3.103,7.758,7.758C328.921,202.473,325.042,205.576,321.164,205.576z"/>
	<rect x="211.782" y="397.188" style="fill:#193651;" width="15.515" height="13.964"/>
</g>
<g>
	<rect x="249.018" y="397.188" style="fill:#193651;" width="15.515" height="13.964"/>
	<rect x="286.255" y="397.188" style="fill:#193651;" width="15.515" height="13.964"/>
	<circle style="fill:#193651;" cx="432.873" cy="279.273" r="6.982"/>
</g>
<g>
</g>
<g>
</g>
<g>
</g>
<g>
</g>
<g>
</g>
<g>
</g>
<g>
</g>
<g>
</g>
<g>
</g>
<g>
</g>
<g>
</g>
<g>
</g>
<g>
</g>
<g>
</g>
<g>
</g>
</svg>
